<?xml version="1.0"?><svg width="640" height="480" xmlns="http://www.w3.org/2000/svg">
 <title>Cloud icon</title>
 <g>
  <title>Layer 1</title>
  <g id="layer1">
   <path d="m505.344177,210.691483c-43.036926,-11.731949 -86.590027,1.694122 -116.656982,30.861389c-15.708649,-19.209518 -36.979187,-34.035355 -62.492218,-40.989761c-65.660553,-17.898697 -133.302551,21.831985 -150.896317,88.632324c-1.292831,4.908478 -1.633209,9.844543 -2.326569,14.753876c-59.130478,-6.253357 -115.709042,31.406403 -131.582561,91.675995c-15.72847,59.718201 13.951939,120.781921 67.29771,145.888977c-2.899742,6.397278 -5.603493,12.987732 -7.455788,20.019836c-17.593521,66.800293 21.498428,135.468628 87.159111,153.36731c32.160721,8.76825 64.66185,3.619568 91.641571,-11.664001c14.869415,32.362305 42.592407,58.408936 79.138336,68.370728c52.143097,14.214478 105.055206,-8.30249 133.621307,-51.460205c11.571442,8.333984 24.433502,15.227722 38.921967,19.17804c65.660522,17.898682 133.157043,-21.872375 150.750854,-88.672791c8.847107,-33.590576 3.372803,-67.583862 -12.597656,-95.443604c15.805542,-15.332825 28.17749,-34.755066 34.239197,-57.770905c17.59375,-66.801147 -21.498352,-135.46936 -87.158813,-153.368134c-6.911926,-1.883301 -13.835632,-2.944305 -20.729431,-3.587982c4.085815,-58.661224 -32.972656,-114.007004 -90.873718,-129.791092z" id="path4952" stroke-dashoffset="0" stroke-miterlimit="4" stroke-linejoin="round" stroke-width="14.790461" stroke="#ffffff" fill="#ffffff"/>
  </g>
 </g>
</svg>