<svg id="Capa_1" enable-background="new 0 0 512 512" height="512" viewBox="0 0 512 512" width="512" xmlns="http://www.w3.org/2000/svg"><g><path d="m267.681 98.28c35.715-15.874 63.035-98.28 63.035-98.28h-149.432s27.32 82.406 63.035 98.28c-92.298 12.363-165.299 168.505-165.299 278.372 0 114.463 79.237 135.348 176.98 135.348s176.98-20.885 176.98-135.348c0-109.867-73.001-266.009-165.299-278.372z" fill="#0b799d"/><path d="m267.681 98.28c35.715-15.874 63.035-98.28 63.035-98.28h-74.716v512c97.744 0 176.98-20.885 176.98-135.348 0-109.867-73.001-266.009-165.299-278.372z" fill="#07485e"/><g><path d="m138.25 428.159c-9.27-14.706-13.969-33.452-13.969-55.716 0-25.078 5.897-54.143 16.605-81.839l27.981 10.818c-9.406 24.33-14.586 49.552-14.586 71.021 0 16.515 3.145 29.878 9.348 39.719z" fill="#07485e"/></g><path d="m271 200.171v-41.82l17.319 32.999 26.564-13.941-40.977-78.074c-5.889-1.209-11.862-1.841-17.907-1.841-6.044 0-12.018.632-17.906 1.841l-40.977 78.074 26.563 13.941 17.32-33v41.82h30.001z" fill="#07485e"/><path d="m273.907 99.335c-5.889-1.209-11.862-1.841-17.907-1.841v102.677h15v-41.82l17.319 32.999 26.564-13.941z" fill="#03232e"/></g></svg>