<?xml version="1.0" encoding="iso-8859-1"?>
<!-- Generator: Adobe Illustrator 19.0.0, SVG Export Plug-In . SVG Version: 6.00 Build 0)  -->
<svg version="1.1" id="Capa_1" xmlns="http://www.w3.org/2000/svg" xmlns:xlink="http://www.w3.org/1999/xlink" x="0px" y="0px"
	 viewBox="0 0 512 512" style="enable-background:new 0 0 512 512;" xml:space="preserve">
<polygon style="fill:#93D6F4;" points="277.334,207 277.334,177 97,177 97,236.951 27.667,279.618 27.667,490.667 57.667,490.667 
	57.667,452.333 166.334,452.333 166.334,490.667 196.334,490.667 196.334,279.618 127,236.951 127,207 "/>
<polygon style="fill:#4BBAED;" points="277.334,207 277.334,177 111.667,177 111.667,452.333 166.334,452.333 166.334,490.667 
	196.334,490.667 196.334,279.618 127,236.951 127,207 "/>
<rect x="230.33" style="fill:#DFDEE0;" width="256.98" height="512"/>
<rect x="358.33" style="fill:#BEBDC2;" width="128.98" height="512"/>
<rect x="301.16" y="192" style="fill:#AEAEAE;" width="30" height="42.667"/>
<rect x="386.49" y="192" style="fill:#666666;" width="30" height="42.667"/>
<rect x="301.16" y="277.33" style="fill:#AEAEAE;" width="30" height="42.666"/>
<rect x="386.49" y="277.33" style="fill:#666666;" width="30" height="42.666"/>
<polygon style="fill:#4BBAED;" points="331.158,491.667 331.158,399 386.491,399 386.491,491.667 416.491,491.667 416.491,369 
	301.158,369 301.158,491.667 "/>
<rect x="315.67" y="384" style="fill:#DBF1FB;" width="85.82" height="107.67"/>
<rect x="358.33" y="384" style="fill:#8CD3F4;" width="43.16" height="107.67"/>
<polygon style="fill:#4BBAED;" points="331.158,491.667 331.158,399 386.491,399 386.491,491.667 416.491,491.667 416.491,369 
	301.158,369 301.158,491.667 "/>
<polygon style="fill:#1594CF;" points="386.491,491.667 416.491,491.667 416.491,369 358.167,369 358.167,399 386.491,399 "/>
<rect y="482" style="fill:#8F8E92;" width="512" height="30"/>
<rect x="256" y="482" style="fill:#57575A;" width="256" height="30"/>
<path style="fill:#4BBAED;" d="M358.825,140.796c-20.711,0-37.561-16.85-37.561-37.561c0-5.447,1.56-14.858,15.042-33.605
	c6.694-9.309,13.318-16.711,13.597-17.021l8.922-9.942l8.922,9.942c0.278,0.311,6.902,7.713,13.596,17.021
	c13.483,18.747,15.043,28.158,15.043,33.605C396.386,123.947,379.536,140.796,358.825,140.796z"/>
<path style="fill:#1594CF;" d="M381.343,69.63c-6.693-9.309-13.317-16.711-13.596-17.021l-8.922-9.942l-0.127,0.141v97.985
	c0.043,0,0.084,0.003,0.127,0.003c20.711,0,37.561-16.85,37.561-37.561C396.386,97.789,394.826,88.377,381.343,69.63z"/>
<g>
</g>
<g>
</g>
<g>
</g>
<g>
</g>
<g>
</g>
<g>
</g>
<g>
</g>
<g>
</g>
<g>
</g>
<g>
</g>
<g>
</g>
<g>
</g>
<g>
</g>
<g>
</g>
<g>
</g>
</svg>
